<svg id="Component_2_1" data-name="Component 2 – 1" xmlns="http://www.w3.org/2000/svg" width="486" height="168.076" viewBox="0 0 486 168.076">
  <path id="Icon_awesome-book" data-name="Icon awesome-book" d="M125.141,118.178V7.879c0-4.366-2.989-7.879-6.7-7.879H26.816C12.011,0,0,14.116,0,31.514V136.562c0,17.4,12.011,31.514,26.816,31.514h91.621c3.715,0,6.7-3.512,6.7-7.879v-5.252a8.534,8.534,0,0,0-2.486-6.139c-1.173-5.055-1.173-19.467,0-24.522A8.4,8.4,0,0,0,125.141,118.178ZM35.755,43.989a1.846,1.846,0,0,1,1.676-1.97H96.649a1.846,1.846,0,0,1,1.676,1.97v6.565a1.846,1.846,0,0,1-1.676,1.97H37.431a1.846,1.846,0,0,1-1.676-1.97Zm0,21.009a1.846,1.846,0,0,1,1.676-1.97H96.649A1.846,1.846,0,0,1,98.325,65v6.565a1.846,1.846,0,0,1-1.676,1.97H37.431a1.846,1.846,0,0,1-1.676-1.97Zm70.783,82.068H26.816c-4.944,0-8.939-4.694-8.939-10.5,0-5.778,4.022-10.5,8.939-10.5h79.721A138.812,138.812,0,0,0,106.537,147.066Z" fill="#e3bc1f"/>
  <text id="NEXTBOOK" transform="translate(322 111.076)" fill="#fff6f6" font-size="65" font-family="SegoeUI, Segoe UI"><tspan x="-163.96" y="0">NEXTBOOK</tspan></text>
</svg>

